# xmcd
#
# Track frame offsets: 
#        150
#        9865
#        20132
#        30760
#        41337
#        50953
#        59909
#        70056
#        80240
#        91726
#        101440
#        112099
#        122894
#        132361
#        142689
#        150779
#        161797
#        172056
#        183629
#        194095
#        204711
#        215225
#        223897
#        232139
#
# Disc length: 3259 seconds
#
# Revision: 2
# Processed by: cddbd v1.5.2PL0 Copyright (c) Steve Scherf et al.
# Submitted via: ExactAudioCopy v1.0b3
#
DISCID=6c0cb918
DTITLE=Conway Twitty - Six Classic Albums Plus Singles  -  CD1
DYEAR=2013
DGENRE=Rock and Roll
TTITLE0=It's Only Make Believe  (1958)
TTITLE1=Hallelujah I Love Her So  (1959)
TTITLE2=First Romance  (1958)
TTITLE3=Make Me Know You're Mine  (1958)
TTITLE4=Sentimental Journey  (1959)
TTITLE5=I Vibrate (From My Head To My Feet)  (1958)
TTITLE6=The Story Of My Love  (1958)
TTITLE7=I'll Try  (1958)
TTITLE8=You'll Never Walk Alone  (1959)
TTITLE9=Don't You Know  (1958)
TTITLE10=My One And Only You  (1958)
TTITLE11=Mona Lisa  (1959)
TTITLE12=Goin' Home  (1958)
TTITLE13=Judge Of Hearts  (1958)
TTITLE14=Hey Little Lucy (Don't Cha Put No Lipstick On)  (1959)
TTITLE15=Heavenly  (1959)
TTITLE16=Halfway To Heaven  (1959)
TTITLE17=Blueberry Hill  (1959)
TTITLE18=You Win Again  (1959)
TTITLE19=Hey Miss Ruby  (1959)
TTITLE20=Restless  (1959)
TTITLE21=She's Mine  (1959)
TTITLE22=Beach Comber  (1959)
TTITLE23=Danny Boy  (1959)
EXTD=
EXTT0=
EXTT1=
EXTT2=
EXTT3=
EXTT4=
EXTT5=
EXTT6=
EXTT7=
EXTT8=
EXTT9=
EXTT10=
EXTT11=
EXTT12=
EXTT13=
EXTT14=
EXTT15=
EXTT16=
EXTT17=
EXTT18=
EXTT19=
EXTT20=
EXTT21=
EXTT22=
EXTT23=
PLAYORDER=
